<?xml version="1.0" encoding="UTF-8" standalone="no"?>
<!DOCTYPE svg PUBLIC "-//W3C//DTD SVG 1.1//EN" "http://www.w3.org/Graphics/SVG/1.1/DTD/svg11.dtd">
<!-- Generated by Microsoft Visio, SVG Export org-chart.svg Page-1 -->
<svg xmlns="http://www.w3.org/2000/svg" xmlns:xlink="http://www.w3.org/1999/xlink" xmlns:ev="http://www.w3.org/2001/xml-events"
		width="21.5in" height="16.5in" viewBox="0 0 1548 1188" xml:space="preserve" color-interpolation-filters="sRGB" class="st7">
	<style type="text/css">
	<![CDATA[
		.st1 {fill:#ffffff;stroke:#000000;stroke-linecap:round;stroke-linejoin:round;stroke-width:0.75}
		.st2 {stroke:#000000;stroke-linecap:round;stroke-linejoin:round;stroke-width:0.75}
		.st3 {fill:none;stroke:none;stroke-linecap:round;stroke-linejoin:round;stroke-width:0.75}
		.st4 {fill:#000000;font-family:Calibri;font-size:1.00001em}
		.st5 {fill:#000000;font-family:Calibri;font-size:0.75em}
		.st6 {font-size:1em}
		.st7 {fill:none;fill-rule:evenodd;font-size:12px;overflow:visible;stroke-linecap:square;stroke-miterlimit:3}
	]]>
	</style>

	<g>
		<title>Page-1</title>
		<g id="group203-1" transform="translate(211.5,-794.25)">
			<title>Sheet.203</title>
			<g id="shape204-2">
				<title>Sheet.204</title>
				<rect x="0" y="1143" width="90" height="45" class="st1"/>
			</g>
			<g id="shape205-4" transform="translate(0,-18)">
				<title>Sheet.205</title>
				<path d="M0 1188 L90 1188" class="st2"/>
			</g>
			<g id="shape206-7" transform="translate(0,-18)">
				<title>Sheet.206</title>
				<desc>M. Faiz</desc>
				<rect x="0" y="1161" width="90" height="27" class="st3"/>
				<text x="27.62" y="1178.1" class="st4">M. Faiz</text>			</g>
			<g id="shape207-10">
				<title>Sheet.207</title>
				<desc>Team Leader</desc>
				<rect x="0" y="1170" width="90" height="18" class="st3"/>
				<text x="21.34" y="1181.7" class="st5">Team Leader</text>			</g>
		</g>
		<g id="group18-13" transform="translate(36,-938.25)">
			<title>Sheet.18</title>
			<g id="shape19-14">
				<title>Sheet.19</title>
				<rect x="0" y="1143" width="90" height="45" class="st1"/>
			</g>
			<g id="shape20-16" transform="translate(0,-18)">
				<title>Sheet.20</title>
				<path d="M0 1188 L90 1188" class="st2"/>
			</g>
			<g id="shape21-19" transform="translate(0,-18)">
				<title>Sheet.21</title>
				<desc>Milie A. Razak</desc>
				<rect x="0" y="1161" width="90" height="27" class="st3"/>
				<text x="10.95" y="1178.1" class="st4">Milie A. Razak</text>			</g>
			<g id="shape22-22">
				<title>Sheet.22</title>
				<desc>HR, Account &#38; Admin</desc>
				<rect x="0" y="1170" width="90" height="18" class="st3"/>
				<text x="5.53" y="1181.7" class="st5">HR, Account &#38; Admin</text>			</g>
		</g>
		<g id="group23-25" transform="translate(211.5,-939.375)">
			<title>Sheet.23</title>
			<g id="shape24-26">
				<title>Sheet.24</title>
				<rect x="0" y="1143" width="90" height="45" class="st1"/>
			</g>
			<g id="shape25-28" transform="translate(0,-24.75)">
				<title>Sheet.25</title>
				<path d="M0 1188 L90 1188" class="st2"/>
			</g>
			<g id="shape26-31" transform="translate(0,-24.75)">
				<title>Sheet.26</title>
				<desc>Ping Ping Lau</desc>
				<rect x="0" y="1167.75" width="90" height="20.25" class="st3"/>
				<text x="12.83" y="1181.48" class="st4">Ping Ping Lau</text>			</g>
			<g id="shape27-34">
				<title>Sheet.27</title>
				<desc>Director Of Software &#38; Solutions</desc>
				<rect x="0" y="1163.25" width="90" height="24.75" class="st3"/>
				<text x="7.15" y="1172.93" class="st5">Director Of Software <tspan x="24.04" dy="1.2em" class="st6">&#38; Solutions</tspan></text>			</g>
		</g>
		<g id="group28-38" transform="translate(389.25,-938.25)">
			<title>Sheet.28</title>
			<g id="shape29-39">
				<title>Sheet.29</title>
				<rect x="0" y="1143" width="90" height="45" class="st1"/>
			</g>
			<g id="shape30-41" transform="translate(0,-24.75)">
				<title>Sheet.30</title>
				<path d="M0 1188 L90 1188" class="st2"/>
			</g>
			<g id="shape31-44" transform="translate(0,-24.75)">
				<title>Sheet.31</title>
				<desc>Eric Khoo</desc>
				<rect x="0" y="1167.75" width="90" height="20.25" class="st3"/>
				<text x="22.11" y="1181.48" class="st4">Eric Khoo</text>			</g>
			<g id="shape32-47">
				<title>Sheet.32</title>
				<desc>VP Manager. Business Development</desc>
				<rect x="0" y="1163.25" width="90" height="24.75" class="st3"/>
				<text x="4.77" y="1172.93" class="st5">VP Manager. Business <tspan x="20.25" dy="1.2em" class="st6">Development</tspan></text>			</g>
		</g>
		<g id="group33-51" transform="translate(508.5,-938.25)">
			<title>Sheet.33</title>
			<g id="shape34-52">
				<title>Sheet.34</title>
				<rect x="0" y="1143" width="90" height="45" class="st1"/>
			</g>
			<g id="shape35-54" transform="translate(0,-24.75)">
				<title>Sheet.35</title>
				<path d="M0 1188 L90 1188" class="st2"/>
			</g>
			<g id="shape36-57" transform="translate(0,-24.75)">
				<title>Sheet.36</title>
				<desc>KS Cho</desc>
				<rect x="0" y="1167.75" width="90" height="20.25" class="st3"/>
				<text x="28.25" y="1181.48" class="st4">KS Cho</text>			</g>
			<g id="shape37-60">
				<title>Sheet.37</title>
				<desc>Manager Engineering &#38; Development</desc>
				<rect x="0" y="1163.25" width="90" height="24.75" class="st3"/>
				<text x="5.9" y="1172.93" class="st5">Manager Engineering <tspan x="16.16" dy="1.2em" class="st6">&#38; Development</tspan></text>			</g>
		</g>
		<g id="group38-64" transform="translate(623.25,-938.25)">
			<title>Sheet.38</title>
			<g id="shape39-65">
				<title>Sheet.39</title>
				<rect x="0" y="1143" width="90" height="45" class="st1"/>
			</g>
			<g id="shape40-67" transform="translate(0,-24.75)">
				<title>Sheet.40</title>
				<path d="M0 1188 L90 1188" class="st2"/>
			</g>
			<g id="shape41-70" transform="translate(0,-24.75)">
				<title>Sheet.41</title>
				<desc>CT Tin</desc>
				<rect x="0" y="1167.75" width="90" height="20.25" class="st3"/>
				<text x="30.07" y="1181.48" class="st4">CT Tin</text>			</g>
			<g id="shape42-73">
				<title>Sheet.42</title>
				<desc>Director Technology &#38; Solutions</desc>
				<rect x="0" y="1163.25" width="90" height="24.75" class="st3"/>
				<text x="8.02" y="1172.93" class="st5">Director Technology <tspan x="24.04" dy="1.2em" class="st6">&#38; Solutions</tspan></text>			</g>
		</g>
		<g id="group43-77" transform="translate(740.25,-938.25)">
			<title>Sheet.43</title>
			<g id="shape44-78">
				<title>Sheet.44</title>
				<rect x="0" y="1143" width="90" height="45" class="st1"/>
			</g>
			<g id="shape45-80" transform="translate(0,-24.75)">
				<title>Sheet.45</title>
				<path d="M0 1188 L90 1188" class="st2"/>
			</g>
			<g id="shape46-83" transform="translate(0,-24.75)">
				<title>Sheet.46</title>
				<desc>Abd Hadi</desc>
				<rect x="0" y="1167.75" width="90" height="20.25" class="st3"/>
				<text x="22.73" y="1181.48" class="st4">Abd Hadi</text>			</g>
			<g id="shape47-86">
				<title>Sheet.47</title>
				<desc>Manager Deployment &#38; Training Solutions</desc>
				<rect x="0" y="1163.25" width="90" height="24.75" class="st3"/>
				<text x="5.01" y="1172.93" class="st5">Manager Deployment <tspan x="8.19" dy="1.2em" class="st6">&#38; Training Solutions</tspan></text>			</g>
		</g>
		<g id="shape51-90" transform="translate(81,-1003.5)">
			<title>Sheet.51</title>
			<path d="M0 1188 L704.25 1188" class="st2"/>
		</g>
		<g id="shape52-93" transform="translate(-1107,204.75) rotate(-90)">
			<title>Sheet.52</title>
			<path d="M0 1188 L20.25 1188" class="st2"/>
		</g>
		<g id="shape53-96" transform="translate(-402.75,204.75) rotate(-90)">
			<title>Sheet.53</title>
			<path d="M0 1188 L20.25 1188" class="st2"/>
		</g>
		<g id="shape55-99" transform="translate(247.5,-984.375)">
			<title>Dynamic connector.55</title>
			<path d="M9 1188 L9 1167.75" class="st2"/>
		</g>
		<g id="shape56-102" transform="translate(425.25,-983.25)">
			<title>Dynamic connector.56</title>
			<path d="M9 1188 L9 1167.75" class="st2"/>
		</g>
		<g id="shape57-105" transform="translate(544.5,-983.25)">
			<title>Dynamic connector.57</title>
			<path d="M9 1188 L9 1167.75" class="st2"/>
		</g>
		<g id="shape58-108" transform="translate(659.25,-983.25)">
			<title>Dynamic connector.58</title>
			<path d="M9 1188 L9 1167.75" class="st2"/>
		</g>
		<g id="group59-111" transform="translate(36,-866.25)">
			<title>Sheet.59</title>
			<g id="shape60-112">
				<title>Sheet.60</title>
				<rect x="0" y="1143" width="90" height="45" class="st1"/>
			</g>
			<g id="shape61-114" transform="translate(0,-18)">
				<title>Sheet.61</title>
				<path d="M0 1188 L90 1188" class="st2"/>
			</g>
			<g id="shape62-117" transform="translate(0,-18)">
				<title>Sheet.62</title>
				<desc>Syakira</desc>
				<rect x="0" y="1161" width="90" height="27" class="st3"/>
				<text x="27.58" y="1178.1" class="st4">Syakira</text>			</g>
			<g id="shape63-120">
				<title>Sheet.63</title>
				<desc>Account Clerk</desc>
				<rect x="0" y="1170" width="90" height="18" class="st3"/>
				<text x="19.68" y="1181.7" class="st5">Account Clerk</text>			</g>
		</g>
		<g id="group64-123" transform="translate(36,-794.25)">
			<title>Sheet.64</title>
			<g id="shape65-124">
				<title>Sheet.65</title>
				<rect x="0" y="1143" width="90" height="45" class="st1"/>
			</g>
			<g id="shape66-126" transform="translate(0,-18)">
				<title>Sheet.66</title>
				<path d="M0 1188 L90 1188" class="st2"/>
			</g>
			<g id="shape67-129" transform="translate(0,-18)">
				<title>Sheet.67</title>
				<desc>Syareeza</desc>
				<rect x="0" y="1161" width="90" height="27" class="st3"/>
				<text x="23.35" y="1178.1" class="st4">Syareeza</text>			</g>
			<g id="shape68-132">
				<title>Sheet.68</title>
				<desc>Account Clerk</desc>
				<rect x="0" y="1170" width="90" height="18" class="st3"/>
				<text x="19.68" y="1181.7" class="st5">Account Clerk</text>			</g>
		</g>
		<g id="group69-135" transform="translate(36,-722.25)">
			<title>Sheet.69</title>
			<g id="shape70-136">
				<title>Sheet.70</title>
				<rect x="0" y="1143" width="90" height="45" class="st1"/>
			</g>
			<g id="shape71-138" transform="translate(0,-18)">
				<title>Sheet.71</title>
				<path d="M0 1188 L90 1188" class="st2"/>
			</g>
			<g id="shape72-141" transform="translate(0,-18)">
				<title>Sheet.72</title>
				<desc>Sabila</desc>
				<rect x="0" y="1161" width="90" height="27" class="st3"/>
				<text x="30.59" y="1178.1" class="st4">Sabila</text>			</g>
			<g id="shape73-144">
				<title>Sheet.73</title>
				<desc>Clerk</desc>
				<rect x="0" y="1170" width="90" height="18" class="st3"/>
				<text x="35.71" y="1181.7" class="st5">Clerk</text>			</g>
		</g>
		<g id="group91-147" transform="translate(153,-722.25)">
			<title>Sheet.91</title>
			<g id="shape92-148">
				<title>Sheet.92</title>
				<rect x="0" y="1143" width="90" height="45" class="st1"/>
			</g>
			<g id="shape93-150" transform="translate(0,-24.75)">
				<title>Sheet.93</title>
				<path d="M0 1188 L90 1188" class="st2"/>
			</g>
			<g id="shape94-153" transform="translate(0,-24.75)">
				<title>Sheet.94</title>
				<desc>Abd Hafiz</desc>
				<rect x="0" y="1167.75" width="90" height="20.25" class="st3"/>
				<text x="21.68" y="1181.48" class="st4">Abd Hafiz</text>			</g>
		</g>
		<g id="group176-156" transform="translate(270,-722.25)">
			<title>Sheet.176</title>
			<g id="shape177-157">
				<title>Sheet.177</title>
				<rect x="0" y="1143" width="90" height="45" class="st1"/>
			</g>
			<g id="shape178-159" transform="translate(0,-24.75)">
				<title>Sheet.178</title>
				<path d="M0 1188 L90 1188" class="st2"/>
			</g>
			<g id="shape179-162" transform="translate(0,-24.75)">
				<title>Sheet.179</title>
				<desc>Fatin Nazihah</desc>
				<rect x="0" y="1167.75" width="90" height="20.25" class="st3"/>
				<text x="11.8" y="1181.48" class="st4">Fatin Nazihah</text>			</g>
		</g>
		<g id="group180-165" transform="translate(153,-650.25)">
			<title>Sheet.180</title>
			<g id="shape181-166">
				<title>Sheet.181</title>
				<rect x="0" y="1143" width="90" height="45" class="st1"/>
			</g>
			<g id="shape182-168" transform="translate(0,-24.75)">
				<title>Sheet.182</title>
				<path d="M0 1188 L90 1188" class="st2"/>
			</g>
			<g id="shape183-171" transform="translate(0,-24.75)">
				<title>Sheet.183</title>
				<desc>Nur Asmira</desc>
				<rect x="0" y="1167.75" width="90" height="20.25" class="st3"/>
				<text x="17.57" y="1181.48" class="st4">Nur Asmira</text>			</g>
		</g>
		<g id="group184-174" transform="translate(270,-650.25)">
			<title>Sheet.184</title>
			<g id="shape185-175">
				<title>Sheet.185</title>
				<rect x="0" y="1143" width="90" height="45" class="st1"/>
			</g>
			<g id="shape186-177" transform="translate(0,-24.75)">
				<title>Sheet.186</title>
				<path d="M0 1188 L90 1188" class="st2"/>
			</g>
			<g id="shape187-180" transform="translate(0,-24.75)">
				<title>Sheet.187</title>
				<desc>Shah Irfan</desc>
				<rect x="0" y="1167.75" width="90" height="20.25" class="st3"/>
				<text x="20.25" y="1181.48" class="st4">Shah Irfan</text>			</g>
		</g>
		<g id="group188-183" transform="translate(153,-866.25)">
			<title>Sheet.188</title>
			<g id="shape189-184">
				<title>Sheet.189</title>
				<rect x="0" y="1143" width="90" height="45" class="st1"/>
			</g>
			<g id="shape190-186" transform="translate(0,-18)">
				<title>Sheet.190</title>
				<path d="M0 1188 L90 1188" class="st2"/>
			</g>
			<g id="shape191-189" transform="translate(0,-18)">
				<title>Sheet.191</title>
				<desc>Koi Ka Siang</desc>
				<rect x="0" y="1161" width="90" height="27" class="st3"/>
				<text x="15.65" y="1178.1" class="st4">Koi Ka Siang</text>			</g>
			<g id="shape192-192">
				<title>Sheet.192</title>
				<desc>Team Leader</desc>
				<rect x="0" y="1170" width="90" height="18" class="st3"/>
				<text x="21.34" y="1181.7" class="st5">Team Leader</text>			</g>
		</g>
		<g id="group193-195" transform="translate(270,-866.25)">
			<title>Sheet.193</title>
			<g id="shape194-196">
				<title>Sheet.194</title>
				<rect x="0" y="1143" width="90" height="45" class="st1"/>
			</g>
			<g id="shape195-198" transform="translate(0,-18)">
				<title>Sheet.195</title>
				<path d="M0 1188 L90 1188" class="st2"/>
			</g>
			<g id="shape196-201" transform="translate(0,-18)">
				<title>Sheet.196</title>
				<desc>Chiao Yee</desc>
				<rect x="0" y="1161" width="90" height="27" class="st3"/>
				<text x="20.98" y="1178.1" class="st4">Chiao Yee</text>			</g>
			<g id="shape197-204">
				<title>Sheet.197</title>
				<desc>Team Leader</desc>
				<rect x="0" y="1170" width="90" height="18" class="st3"/>
				<text x="21.34" y="1181.7" class="st5">Team Leader</text>			</g>
		</g>
		<g id="shape208-207" transform="translate(153,-722.25)">
			<title>Sheet.208</title>
			<desc>System Analyst</desc>
			<rect x="0" y="1163.25" width="90" height="24.75" class="st3"/>
			<text x="17.32" y="1178.33" class="st5">System Analyst</text>		</g>
		<g id="shape210-210" transform="translate(270,-722.25)">
			<title>Sheet.210</title>
			<desc>System Analyst</desc>
			<rect x="0" y="1163.25" width="90" height="24.75" class="st3"/>
			<text x="17.32" y="1178.33" class="st5">System Analyst</text>		</g>
		<g id="shape211-213" transform="translate(153,-650.25)">
			<title>Sheet.211</title>
			<desc>Fullstack Developer</desc>
			<rect x="0" y="1163.25" width="90" height="24.75" class="st3"/>
			<text x="9.26" y="1178.33" class="st5">Fullstack Developer</text>		</g>
		<g id="shape212-216" transform="translate(270,-650.25)">
			<title>Sheet.212</title>
			<desc>Junior Developer</desc>
			<rect x="0" y="1163.25" width="90" height="24.75" class="st3"/>
			<text x="13.99" y="1178.33" class="st5">Junior Developer</text>		</g>
		<g id="group213-219" transform="translate(211.5,-580.5)">
			<title>Sheet.213</title>
			<g id="shape214-220">
				<title>Sheet.214</title>
				<rect x="0" y="1143" width="90" height="45" class="st1"/>
			</g>
			<g id="shape215-222" transform="translate(0,-24.75)">
				<title>Sheet.215</title>
				<path d="M0 1188 L90 1188" class="st2"/>
			</g>
			<g id="shape216-225" transform="translate(0,-24.75)">
				<title>Sheet.216</title>
				<desc>Hafiz Jefri</desc>
				<rect x="0" y="1167.75" width="90" height="20.25" class="st3"/>
				<text x="21.25" y="1181.48" class="st4">Hafiz Jefri</text>			</g>
		</g>
		<g id="shape218-228" transform="translate(211.5,-580.5)">
			<title>Sheet.218</title>
			<desc>Intern</desc>
			<rect x="0" y="1163.25" width="90" height="24.75" class="st3"/>
			<text x="33.82" y="1178.33" class="st5">Intern</text>		</g>
		<g id="shape221-231" transform="translate(198,-927)">
			<title>Sheet.221</title>
			<path d="M0 1188 L117 1188" class="st2"/>
		</g>
		<g id="shape222-234" transform="translate(-873,276.75) rotate(-90)">
			<title>Sheet.222</title>
			<path d="M0 1188 L15.75 1188" class="st2"/>
		</g>
		<g id="shape223-237" transform="translate(-990,276.75) rotate(-90)">
			<title>Sheet.223</title>
			<path d="M0 1188 L15.75 1188" class="st2"/>
		</g>
		<g id="shape224-240" transform="translate(-931.5,261) rotate(-90)">
			<title>Sheet.224</title>
			<path d="M0 1188 L12.37 1188" class="st2"/>
		</g>
		<g id="shape225-243" transform="translate(1444.5,261) rotate(90)">
			<title>Sheet.225</title>
			<path d="M0 1188 L87.75 1188" class="st2"/>
		</g>
		<g id="shape226-246" transform="translate(198,-711)">
			<title>Sheet.226</title>
			<path d="M0 1188 L117 1188" class="st2"/>
		</g>
		<g id="shape227-249" transform="translate(-873,492.75) rotate(-90)">
			<title>Sheet.227</title>
			<path d="M0 1188 L15.75 1188" class="st2"/>
		</g>
		<g id="shape228-252" transform="translate(-990,492.75) rotate(-90)">
			<title>Sheet.228</title>
			<path d="M0 1188 L15.75 1188" class="st2"/>
		</g>
		<g id="shape229-255" transform="translate(-931.5,562.5) rotate(-90)">
			<title>Sheet.229</title>
			<path d="M0 1188 L168.75 1188" class="st2"/>
		</g>
		<g id="shape230-258" transform="translate(-990,420.75) rotate(-90)">
			<title>Sheet.230</title>
			<path d="M0 1188 L99 1188" class="st2"/>
		</g>
		<g id="shape231-261" transform="translate(-873,420.75) rotate(-90)">
			<title>Sheet.231</title>
			<path d="M0 1188 L99 1188" class="st2"/>
		</g>
		<g id="shape232-264" transform="translate(205.615,-781.476) rotate(0.367276)">
			<title>Sheet.232</title>
			<path d="M0 1188 L117 1188" class="st2"/>
		</g>
		<g id="group235-267" transform="translate(389.25,-866.25)">
			<title>Sheet.235</title>
			<g id="shape236-268">
				<title>Sheet.236</title>
				<rect x="0" y="1143" width="90" height="45" class="st1"/>
			</g>
			<g id="shape237-270" transform="translate(0,-24.75)">
				<title>Sheet.237</title>
				<path d="M0 1188 L90 1188" class="st2"/>
			</g>
			<g id="shape238-273" transform="translate(0,-24.75)">
				<title>Sheet.238</title>
				<desc>Ian Cheah</desc>
				<rect x="0" y="1167.75" width="90" height="20.25" class="st3"/>
				<text x="20.74" y="1181.48" class="st4">Ian Cheah</text>			</g>
			<g id="shape239-276">
				<title>Sheet.239</title>
				<desc>Marketing Leader</desc>
				<rect x="0" y="1163.25" width="90" height="24.75" class="st3"/>
				<text x="12.65" y="1178.33" class="st5">Marketing Leader</text>			</g>
		</g>
		<g id="shape240-279" transform="translate(1622.25,249.75) rotate(90)">
			<title>Sheet.240</title>
			<path d="M0 1188 L27 1188" class="st2"/>
		</g>
		<g id="group241-282" transform="translate(508.5,-866.25)">
			<title>Sheet.241</title>
			<g id="shape242-283">
				<title>Sheet.242</title>
				<rect x="0" y="1143" width="90" height="45" class="st1"/>
			</g>
			<g id="shape243-285" transform="translate(0,-24.75)">
				<title>Sheet.243</title>
				<path d="M0 1188 L90 1188" class="st2"/>
			</g>
			<g id="shape244-288" transform="translate(0,-24.75)">
				<title>Sheet.244</title>
				<desc>Yoo Tuck Man</desc>
				<rect x="0" y="1167.75" width="90" height="20.25" class="st3"/>
				<text x="10.54" y="1181.48" class="st4">Yoo Tuck Man</text>			</g>
			<g id="shape245-291">
				<title>Sheet.245</title>
				<desc>Engineer, Deployment Solutions</desc>
				<rect x="0" y="1163.25" width="90" height="24.75" class="st3"/>
				<text x="4.22" y="1172.93" class="st5">Engineer, Deployment <tspan x="28.12" dy="1.2em" class="st6">Solutions</tspan></text>			</g>
		</g>
		<g id="group251-295" transform="translate(508.5,-794.25)">
			<title>Sheet.251</title>
			<g id="shape252-296">
				<title>Sheet.252</title>
				<rect x="0" y="1143" width="90" height="45" class="st1"/>
			</g>
			<g id="shape253-298" transform="translate(0,-24.75)">
				<title>Sheet.253</title>
				<path d="M0 1188 L90 1188" class="st2"/>
			</g>
			<g id="shape254-301" transform="translate(0,-24.75)">
				<title>Sheet.254</title>
				<desc>David</desc>
				<rect x="0" y="1167.75" width="90" height="20.25" class="st3"/>
				<text x="31.2" y="1181.48" class="st4">David</text>			</g>
			<g id="shape255-304">
				<title>Sheet.255</title>
				<desc>Engineer, Deployment Solutions</desc>
				<rect x="0" y="1163.25" width="90" height="24.75" class="st3"/>
				<text x="4.22" y="1172.93" class="st5">Engineer, Deployment <tspan x="28.12" dy="1.2em" class="st6">Solutions</tspan></text>			</g>
		</g>
		<g id="group256-308" transform="translate(508.5,-722.25)">
			<title>Sheet.256</title>
			<g id="shape257-309">
				<title>Sheet.257</title>
				<rect x="0" y="1143" width="90" height="45" class="st1"/>
			</g>
			<g id="shape258-311" transform="translate(0,-24.75)">
				<title>Sheet.258</title>
				<path d="M0 1188 L90 1188" class="st2"/>
			</g>
			<g id="shape259-314" transform="translate(0,-24.75)">
				<title>Sheet.259</title>
				<desc>Jan Cheah</desc>
				<rect x="0" y="1167.75" width="90" height="20.25" class="st3"/>
				<text x="20.34" y="1181.48" class="st4">Jan Cheah</text>			</g>
			<g id="shape260-317">
				<title>Sheet.260</title>
				<desc>Marketing Executive</desc>
				<rect x="0" y="1163.25" width="90" height="24.75" class="st3"/>
				<text x="7.64" y="1178.33" class="st5">Marketing Executive</text>			</g>
		</g>
		<g id="group261-320" transform="translate(508.5,-650.25)">
			<title>Sheet.261</title>
			<g id="shape262-321">
				<title>Sheet.262</title>
				<rect x="0" y="1143" width="90" height="45" class="st1"/>
			</g>
			<g id="shape263-323" transform="translate(0,-24.75)">
				<title>Sheet.263</title>
				<path d="M0 1188 L90 1188" class="st2"/>
			</g>
			<g id="shape264-326" transform="translate(0,-24.75)">
				<title>Sheet.264</title>
				<desc>Pei Kei</desc>
				<rect x="0" y="1167.75" width="90" height="20.25" class="st3"/>
				<text x="28.7" y="1181.48" class="st4">Pei Kei</text>			</g>
			<g id="shape265-329">
				<title>Sheet.265</title>
				<desc>Marketing Executive</desc>
				<rect x="0" y="1163.25" width="90" height="24.75" class="st3"/>
				<text x="7.64" y="1178.33" class="st5">Marketing Executive</text>			</g>
		</g>
		<g id="shape266-332" transform="translate(1741.5,249.75) rotate(90)">
			<title>Sheet.266</title>
			<path d="M0 1188 L27 1188" class="st2"/>
		</g>
		<g id="shape267-335" transform="translate(1741.5,321.75) rotate(90)">
			<title>Sheet.267</title>
			<path d="M0 1188 L27 1188" class="st2"/>
		</g>
		<g id="shape268-338" transform="translate(1741.5,393.75) rotate(90)">
			<title>Sheet.268</title>
			<path d="M0 1188 L27 1188" class="st2"/>
		</g>
		<g id="shape269-341" transform="translate(1741.5,465.75) rotate(90)">
			<title>Sheet.269</title>
			<path d="M0 1188 L27 1188" class="st2"/>
		</g>
		<g id="group270-344" transform="translate(623.25,-866.25)">
			<title>Sheet.270</title>
			<g id="shape271-345">
				<title>Sheet.271</title>
				<rect x="0" y="1143" width="90" height="45" class="st1"/>
			</g>
			<g id="shape272-347" transform="translate(0,-24.75)">
				<title>Sheet.272</title>
				<path d="M0 1188 L90 1188" class="st2"/>
			</g>
			<g id="shape273-350" transform="translate(0,-24.75)">
				<title>Sheet.273</title>
				<desc>M. Syahmi</desc>
				<rect x="0" y="1167.75" width="90" height="20.25" class="st3"/>
				<text x="19.33" y="1181.48" class="st4">M. Syahmi</text>			</g>
			<g id="shape274-353">
				<title>Sheet.274</title>
				<desc>Firmware Development Leader</desc>
				<rect x="0" y="1163.25" width="90" height="24.75" class="st3"/>
				<text x="27.56" y="1172.93" class="st5">Firmware <tspan x="6.77" dy="1.2em" class="st6">Development Leader</tspan></text>			</g>
		</g>
		<g id="group275-357" transform="translate(623.25,-794.25)">
			<title>Sheet.275</title>
			<g id="shape276-358">
				<title>Sheet.276</title>
				<rect x="0" y="1143" width="90" height="45" class="st1"/>
			</g>
			<g id="shape277-360" transform="translate(0,-24.75)">
				<title>Sheet.277</title>
				<path d="M0 1188 L90 1188" class="st2"/>
			</g>
			<g id="shape278-363" transform="translate(0,-24.75)">
				<title>Sheet.278</title>
				<desc>Abdul Rahman</desc>
				<rect x="0" y="1167.75" width="90" height="20.25" class="st3"/>
				<text x="9.23" y="1181.48" class="st4">Abdul Rahman</text>			</g>
			<g id="shape279-366">
				<title>Sheet.279</title>
				<desc>Firmware Engineer</desc>
				<rect x="0" y="1163.25" width="90" height="24.75" class="st3"/>
				<text x="10.42" y="1178.33" class="st5">Firmware Engineer</text>			</g>
		</g>
		<g id="group280-369" transform="translate(623.25,-722.25)">
			<title>Sheet.280</title>
			<g id="shape281-370">
				<title>Sheet.281</title>
				<rect x="0" y="1143" width="90" height="45" class="st1"/>
			</g>
			<g id="shape282-372" transform="translate(0,-24.75)">
				<title>Sheet.282</title>
				<path d="M0 1188 L90 1188" class="st2"/>
			</g>
			<g id="shape283-375" transform="translate(0,-24.75)">
				<title>Sheet.283</title>
				<desc>Abdul Jabbar</desc>
				<rect x="0" y="1167.75" width="90" height="20.25" class="st3"/>
				<text x="13.28" y="1181.48" class="st4">Abdul Jabbar</text>			</g>
			<g id="shape284-378">
				<title>Sheet.284</title>
				<desc>Firmware Engineer</desc>
				<rect x="0" y="1163.25" width="90" height="24.75" class="st3"/>
				<text x="10.42" y="1178.33" class="st5">Firmware Engineer</text>			</g>
		</g>
		<g id="group285-381" transform="translate(623.25,-650.25)">
			<title>Sheet.285</title>
			<g id="shape286-382">
				<title>Sheet.286</title>
				<rect x="0" y="1143" width="90" height="45" class="st1"/>
			</g>
			<g id="shape287-384" transform="translate(0,-24.75)">
				<title>Sheet.287</title>
				<path d="M0 1188 L90 1188" class="st2"/>
			</g>
			<g id="shape288-387" transform="translate(0,-24.75)">
				<title>Sheet.288</title>
				<desc>Hishamuddin</desc>
				<rect x="0" y="1167.75" width="90" height="20.25" class="st3"/>
				<text x="12.73" y="1181.48" class="st4">Hishamuddin</text>			</g>
			<g id="shape289-390">
				<title>Sheet.289</title>
				<desc>Test Engineer</desc>
				<rect x="0" y="1163.25" width="90" height="24.75" class="st3"/>
				<text x="20.16" y="1178.33" class="st5">Test Engineer</text>			</g>
		</g>
		<g id="shape290-393" transform="translate(1856.25,249.75) rotate(90)">
			<title>Sheet.290</title>
			<path d="M0 1188 L27 1188" class="st2"/>
		</g>
		<g id="shape291-396" transform="translate(1856.25,321.75) rotate(90)">
			<title>Sheet.291</title>
			<path d="M0 1188 L27 1188" class="st2"/>
		</g>
		<g id="shape292-399" transform="translate(1856.25,393.75) rotate(90)">
			<title>Sheet.292</title>
			<path d="M0 1188 L27 1188" class="st2"/>
		</g>
		<g id="shape293-402" transform="translate(1856.25,465.75) rotate(90)">
			<title>Sheet.293</title>
			<path d="M0 1188 L27 1188" class="st2"/>
		</g>
		<g id="group294-405" transform="translate(738,-866.25)">
			<title>Sheet.294</title>
			<g id="shape295-406">
				<title>Sheet.295</title>
				<rect x="0" y="1143" width="90" height="45" class="st1"/>
			</g>
			<g id="shape296-408" transform="translate(0,-24.75)">
				<title>Sheet.296</title>
				<path d="M0 1188 L90 1188" class="st2"/>
			</g>
			<g id="shape297-411" transform="translate(0,-24.75)">
				<title>Sheet.297</title>
				<desc>Khairul</desc>
				<rect x="0" y="1167.75" width="90" height="20.25" class="st3"/>
				<text x="27.86" y="1181.48" class="st4">Khairul</text>			</g>
			<g id="shape298-414">
				<title>Sheet.298</title>
				<desc>Engineer, Deployment Solutions</desc>
				<rect x="0" y="1163.25" width="90" height="24.75" class="st3"/>
				<text x="4.22" y="1172.93" class="st5">Engineer, Deployment <tspan x="28.12" dy="1.2em" class="st6">Solutions</tspan></text>			</g>
		</g>
		<g id="group299-418" transform="translate(738,-794.25)">
			<title>Sheet.299</title>
			<g id="shape300-419">
				<title>Sheet.300</title>
				<rect x="0" y="1143" width="90" height="45" class="st1"/>
			</g>
			<g id="shape301-421" transform="translate(0,-24.75)">
				<title>Sheet.301</title>
				<path d="M0 1188 L90 1188" class="st2"/>
			</g>
			<g id="shape302-424" transform="translate(0,-24.75)">
				<title>Sheet.302</title>
				<desc>M. Firdaus</desc>
				<rect x="0" y="1167.75" width="90" height="20.25" class="st3"/>
				<text x="19.25" y="1181.48" class="st4">M. Firdaus</text>			</g>
			<g id="shape303-427">
				<title>Sheet.303</title>
				<desc>Specialist, Deploy &#38; Production</desc>
				<rect x="0" y="1163.25" width="90" height="24.75" class="st3"/>
				<text x="8.86" y="1172.93" class="st5">Specialist, Deploy &#38; <tspan x="24.82" dy="1.2em" class="st6">Production</tspan></text>			</g>
		</g>
		<g id="group304-431" transform="translate(738,-722.25)">
			<title>Sheet.304</title>
			<g id="shape305-432">
				<title>Sheet.305</title>
				<rect x="0" y="1143" width="90" height="45" class="st1"/>
			</g>
			<g id="shape306-434" transform="translate(0,-24.75)">
				<title>Sheet.306</title>
				<path d="M0 1188 L90 1188" class="st2"/>
			</g>
			<g id="shape307-437" transform="translate(0,-24.75)">
				<title>Sheet.307</title>
				<desc>Hafiz</desc>
				<rect x="0" y="1167.75" width="90" height="20.25" class="st3"/>
				<text x="32.81" y="1181.48" class="st4">Hafiz</text>			</g>
			<g id="shape308-440">
				<title>Sheet.308</title>
				<desc>Specialist, Deployment Solutions</desc>
				<rect x="0" y="1163.25" width="90" height="24.75" class="st3"/>
				<text x="26.78" y="1172.93" class="st5">Specialist, <tspan x="4.59" dy="1.2em" class="st6">Deployment Solutions</tspan></text>			</g>
		</g>
		<g id="group309-444" transform="translate(738,-650.25)">
			<title>Sheet.309</title>
			<g id="shape310-445">
				<title>Sheet.310</title>
				<rect x="0" y="1143" width="90" height="45" class="st1"/>
			</g>
			<g id="shape311-447" transform="translate(0,-24.75)">
				<title>Sheet.311</title>
				<path d="M0 1188 L90 1188" class="st2"/>
			</g>
			<g id="shape312-450" transform="translate(0,-24.75)">
				<title>Sheet.312</title>
				<desc>A. Razzak</desc>
				<rect x="0" y="1167.75" width="90" height="20.25" class="st3"/>
				<text x="22.18" y="1181.48" class="st4">A. Razzak</text>			</g>
			<g id="shape313-453">
				<title>Sheet.313</title>
				<desc>Technician</desc>
				<rect x="0" y="1163.25" width="90" height="24.75" class="st3"/>
				<text x="25.45" y="1178.33" class="st5">Technician</text>			</g>
		</g>
		<g id="group314-456" transform="translate(738,-578.25)">
			<title>Sheet.314</title>
			<g id="shape315-457">
				<title>Sheet.315</title>
				<rect x="0" y="1143" width="90" height="45" class="st1"/>
			</g>
			<g id="shape316-459" transform="translate(0,-24.75)">
				<title>Sheet.316</title>
				<path d="M0 1188 L90 1188" class="st2"/>
			</g>
			<g id="shape317-462" transform="translate(0,-24.75)">
				<title>Sheet.317</title>
				<desc>Imran</desc>
				<rect x="0" y="1167.75" width="90" height="20.25" class="st3"/>
				<text x="30.58" y="1181.48" class="st4">Imran</text>			</g>
			<g id="shape318-465">
				<title>Sheet.318</title>
				<desc>Technician</desc>
				<rect x="0" y="1163.25" width="90" height="24.75" class="st3"/>
				<text x="25.45" y="1178.33" class="st5">Technician</text>			</g>
		</g>
		<g id="group319-468" transform="translate(738,-506.25)">
			<title>Sheet.319</title>
			<g id="shape320-469">
				<title>Sheet.320</title>
				<rect x="0" y="1143" width="90" height="45" class="st1"/>
			</g>
			<g id="shape321-471" transform="translate(0,-24.75)">
				<title>Sheet.321</title>
				<path d="M0 1188 L90 1188" class="st2"/>
			</g>
			<g id="shape322-474" transform="translate(0,-24.75)">
				<title>Sheet.322</title>
				<desc>Zakiah</desc>
				<rect x="0" y="1167.75" width="90" height="20.25" class="st3"/>
				<text x="29.19" y="1181.48" class="st4">Zakiah</text>			</g>
			<g id="shape323-477">
				<title>Sheet.323</title>
				<desc>Technician</desc>
				<rect x="0" y="1163.25" width="90" height="24.75" class="st3"/>
				<text x="25.45" y="1178.33" class="st5">Technician</text>			</g>
		</g>
		<g id="group324-480" transform="translate(738,-434.25)">
			<title>Sheet.324</title>
			<g id="shape325-481">
				<title>Sheet.325</title>
				<rect x="0" y="1143" width="90" height="45" class="st1"/>
			</g>
			<g id="shape326-483" transform="translate(0,-24.75)">
				<title>Sheet.326</title>
				<path d="M0 1188 L90 1188" class="st2"/>
			</g>
			<g id="shape327-486" transform="translate(0,-24.75)">
				<title>Sheet.327</title>
				<desc>Aizat</desc>
				<rect x="0" y="1167.75" width="90" height="20.25" class="st3"/>
				<text x="32.9" y="1181.48" class="st4">Aizat</text>			</g>
			<g id="shape328-489">
				<title>Sheet.328</title>
				<desc>Technician</desc>
				<rect x="0" y="1163.25" width="90" height="24.75" class="st3"/>
				<text x="25.45" y="1178.33" class="st5">Technician</text>			</g>
		</g>
		<g id="shape329-492" transform="translate(1973.25,249.75) rotate(90)">
			<title>Sheet.329</title>
			<path d="M0 1188 L27 1188" class="st2"/>
		</g>
		<g id="shape330-495" transform="translate(1973.25,321.75) rotate(90)">
			<title>Sheet.330</title>
			<path d="M0 1188 L27 1188" class="st2"/>
		</g>
		<g id="shape331-498" transform="translate(1973.25,393.75) rotate(90)">
			<title>Sheet.331</title>
			<path d="M0 1188 L27 1188" class="st2"/>
		</g>
		<g id="shape332-501" transform="translate(1973.25,465.75) rotate(90)">
			<title>Sheet.332</title>
			<path d="M0 1188 L27 1188" class="st2"/>
		</g>
		<g id="shape333-504" transform="translate(1973.25,537.75) rotate(90)">
			<title>Sheet.333</title>
			<path d="M0 1188 L27 1188" class="st2"/>
		</g>
		<g id="shape334-507" transform="translate(1973.25,609.75) rotate(90)">
			<title>Sheet.334</title>
			<path d="M0 1188 L27 1188" class="st2"/>
		</g>
		<g id="shape335-510" transform="translate(1973.25,681.75) rotate(90)">
			<title>Sheet.335</title>
			<path d="M0 1188 L27 1188" class="st2"/>
		</g>
		<g id="group336-513" transform="translate(389.25,-1003.5)">
			<title>Sheet.336</title>
			<g id="group11-514" transform="translate(0,-94.5)">
				<title>Sheet.11</title>
				<g id="shape3-515">
					<title>Sheet.3</title>
					<rect x="0" y="1143" width="90" height="45" class="st1"/>
				</g>
				<g id="shape4-517" transform="translate(0,-18)">
					<title>Sheet.4</title>
					<path d="M0 1188 L90 1188" class="st2"/>
				</g>
				<g id="shape5-520" transform="translate(0,-18)">
					<title>Sheet.5</title>
					<desc>Eddy Cheah</desc>
					<rect x="0" y="1161" width="90" height="27" class="st3"/>
					<text x="16.33" y="1178.1" class="st4">Eddy Cheah</text>				</g>
				<g id="shape8-523">
					<title>Sheet.8</title>
					<desc>President, CEO</desc>
					<rect x="0" y="1170" width="90" height="18" class="st3"/>
					<text x="17.88" y="1181.7" class="st5">President, CEO</text>				</g>
			</g>
			<g id="group12-526" transform="translate(0,-22.5)">
				<title>Sheet.12</title>
				<g id="shape13-527">
					<title>Sheet.13</title>
					<rect x="0" y="1143" width="90" height="45" class="st1"/>
				</g>
				<g id="shape14-529" transform="translate(0,-18)">
					<title>Sheet.14</title>
					<path d="M0 1188 L90 1188" class="st2"/>
				</g>
				<g id="shape15-532" transform="translate(0,-18)">
					<title>Sheet.15</title>
					<desc>Eric Khoo</desc>
					<rect x="0" y="1161" width="90" height="27" class="st3"/>
					<text x="22.11" y="1178.1" class="st4">Eric Khoo</text>				</g>
				<g id="shape16-535">
					<title>Sheet.16</title>
					<desc>Senior VP, COO</desc>
					<rect x="0" y="1170" width="90" height="18" class="st3"/>
					<text x="16.96" y="1181.7" class="st5">Senior VP, COO</text>				</g>
			</g>
			<g id="shape17-538" transform="translate(36,-94.5)">
				<title>Dynamic connector</title>
				<path d="M9 1188 L9 1215" class="st2"/>
			</g>
			<g id="shape54-541" transform="translate(36,-22.5)">
				<title>Dynamic connector.54</title>
				<path d="M9 1188 L9 1210.5" class="st2"/>
			</g>
		</g>
	</g>
</svg>
